<svg xmlns="http://www.w3.org/2000/svg" width="150" height="50" viewBox="0,0,150,50"><path fill="#444" d="M92.83 21.59L92.72 21.48L92.67 21.43Q91.16 20.22 89.52 19.84L89.39 19.71L89.40 19.72Q88.39 19.55 85.61 19.51L85.63 19.53L85.58 19.47Q80.37 19.40 78.31 21.42L78.28 21.39L78.30 21.41Q76.79 23.10 76.91 26.79L76.84 26.72L76.82 26.71Q76.98 30.52 77.13 31.47L77.11 31.45L77.09 31.43Q78.25 37.62 85.98 37.62L85.80 37.44L85.98 37.62Q90.60 37.56 92.69 35.16L92.69 35.15L92.73 35.20Q94.48 32.87 94.71 28.11L94.76 28.17L94.80 28.20Q95.10 23.44 92.77 21.53ZM85.89 40.54L85.86 40.50L85.85 40.50Q79.36 40.67 76.39 38.31L76.24 38.15L76.38 38.29Q74.25 36.09 74.14 31.03L74.13 31.02L74.20 31.09Q74.07 30.47 73.92 27.19L74.00 27.27L73.99 27.26Q73.79 24.59 73.83 23.52L73.86 23.55L73.92 23.61Q73.94 20.62 75.34 18.91L75.51 19.08L75.39 18.96Q77.89 16.62 82.76 16.47L82.82 16.52L82.85 16.55Q84.67 16.55 85.55 16.59L85.41 16.46L85.50 16.54Q95.41 16.60 97.16 20.94L97.17 20.94L97.31 21.08Q97.98 22.96 97.82 25.71L97.87 25.75L97.78 25.67Q97.80 27.39 97.61 30.67L97.74 30.80L97.66 30.72Q97.54 33.60 96.62 35.66L96.54 35.58L96.51 35.55Q94.54 40.36 85.90 40.55ZM98.15 40.43L98.19 40.47L98.24 40.52Q99.55 38.66 99.66 35.58L99.68 35.59L99.70 35.61Q99.71 34.52 99.68 32.92L99.64 32.89L99.70 32.95Q99.66 32.19 99.62 30.36L99.68 30.42L99.76 30.50Q99.68 23.34 97.74 20.86L97.66 20.78L97.57 20.70Q97.37 19.88 96.26 18.78L96.26 18.78L96.23 18.75Q92.89 16.21 85.43 16.05L85.39 16.01L85.35 15.97Q77.95 15.85 74.91 18.44L75.02 18.55L75.00 18.53Q73.45 20.29 73.45 23.23L73.51 23.28L73.50 23.27Q73.58 24.65 73.74 25.98L73.74 25.98L73.71 25.95Q73.67 26.98 73.70 28.42L73.63 28.35L73.78 28.50Q73.92 32.45 74.08 33.63L73.93 33.49L73.96 33.52Q74.40 36.50 75.73 38.29L75.68 38.24L75.78 38.34Q76.26 39.66 77.33 40.42L77.27 40.36L77.31 40.40Q80.58 42.76 88.35 42.95L88.17 42.78L88.31 42.92Q95.52 43.00 98.18 40.45ZM94.56 28.23L94.60 28.27L94.44 28.11Q94.27 32.70 92.37 34.79L92.35 34.77L92.39 34.81Q90.31 37.07 85.85 37.11L85.97 37.23L85.86 37.12Q81.63 37.26 79.50 35.36L79.40 35.26L79.38 35.25Q78.57 33.52 78.65 30.63L78.73 30.71L78.77 30.75Q78.84 26.10 80.86 23.93L80.95 24.02L80.91 23.98Q82.87 21.76 87.48 21.76L87.46 21.74L87.40 21.68Q91.66 21.75 93.76 23.62L93.69 23.55L93.73 23.59Q94.61 25.39 94.50 28.17Z"/><path fill="#333" d="M108.76 41.08L108.73 41.05L108.79 41.10Q112.04 36.94 118.74 29.02L118.58 28.85L118.68 28.96Q112.67 29.07 108.90 27.70L109.00 27.80L109.03 27.83Q108.26 26.30 107.50 24.89L107.49 24.89L107.51 24.90Q111.69 26.49 116.14 26.53L116.10 26.49L116.13 26.52Q120.48 26.45 124.67 25.38L124.69 25.41L124.78 25.50Q124.35 26.13 124.08 26.67L124.11 26.70L124.06 26.64Q121.50 28.84 118.68 32.46L118.77 32.54L113.89 38.78L113.79 38.68Q116.08 38.54 118.33 38.62L118.37 38.66L118.35 38.64Q120.39 38.55 122.64 38.93L122.69 38.98L122.77 39.06Q122.83 39.58 123.56 41.60L123.67 41.71L123.65 41.69Q119.94 40.87 115.94 40.99L115.77 40.82L115.79 40.84Q111.89 41.01 108.24 42.19L108.22 42.17L108.32 42.28Q108.25 41.97 108.71 41.02ZM107.76 42.89L107.60 42.73L107.77 42.90Q108.41 42.44 110.01 42.02L110.08 42.09L110.10 42.11Q109.74 42.21 109.32 42.63L109.31 42.62L109.43 42.73Q109.09 43.20 108.48 44.34L108.62 44.47L108.52 44.37Q113.35 43.15 118.33 43.30L118.20 43.17L118.18 43.15Q123.25 43.42 127.81 45.28L127.78 45.25L127.80 45.27Q126.35 43.40 125.44 41.35L125.52 41.42L125.39 41.30Q124.71 41.07 123.64 40.84L123.69 40.89L123.50 40.70Q123.39 40.06 123.01 38.61L122.99 38.59L123.12 38.72Q121.48 38.30 117.90 38.19L118.01 38.30L117.96 38.24Q120.34 34.91 125.36 28.56L125.27 28.46L125.31 28.50Q125.49 27.69 126.17 26.36L126.18 26.37L123.90 27.13L124.07 27.30Q124.07 27.15 124.22 27.03L124.14 26.95L124.37 26.80L124.40 26.83Q124.78 25.68 125.35 24.73L125.33 24.72L125.42 24.81Q120.75 26.15 116.03 26.07L116.03 26.07L116.10 26.15Q111.30 26.07 106.81 24.24L106.82 24.25L106.86 24.29Q107.94 26.05 108.74 28.11L108.65 28.03L108.72 28.09Q109.56 28.40 110.63 28.67L110.61 28.65L110.63 28.67Q110.91 29.44 111.21 30.89L111.16 30.83L111.22 30.90Q112.68 31.02 115.99 31.17L115.99 31.17L116.05 31.23Q113.56 34.46 108.39 40.89L108.41 40.92L108.54 41.05Q108.31 41.65 107.74 42.87Z"/><path fill="#222" d="M57.17 41.41L57.05 41.29L57.04 41.28Q54.31 41.60 53.06 41.07L53.07 41.08L53.01 41.02Q50.96 40.12 51.04 37.64L51.17 37.78L51.12 37.72Q51.36 34.42 51.36 34.99L51.30 34.94L51.23 34.86Q51.21 29.51 48.35 24.68L48.32 24.64L48.45 24.78Q50.35 25.65 52.33 26.03L52.29 25.99L52.44 26.14Q54.08 30.68 53.97 35.17L54.00 35.20L53.92 35.12Q53.77 36.61 54.61 37.83L54.62 37.84L54.73 37.94Q55.49 39.13 57.02 38.94L57.03 38.95L57.47 38.89L57.44 38.87Q58.74 38.76 59.55 37.99L59.62 38.06L59.56 38.00Q60.43 37.29 60.43 36.34L60.46 36.37L60.41 36.31Q60.50 36.17 60.46 35.98L60.47 36.00L60.49 36.01Q60.22 30.57 61.37 26.23L61.39 26.26L61.47 26.34Q62.41 26.17 63.40 25.95L63.49 26.03L65.47 25.51L65.46 25.49Q63.01 30.62 63.32 36.18L63.34 36.20L63.23 36.09Q63.49 39.24 61.77 40.38L61.79 40.40L61.80 40.41Q60.35 41.13 57.04 41.28ZM59.35 43.67L59.49 43.81L59.53 43.85Q62.97 43.98 64.80 43.22L64.76 43.18L64.81 43.23Q65.57 42.32 65.57 40.91L65.57 40.91L65.64 40.98Q65.63 40.05 65.36 38.49L65.47 38.60L65.29 38.42Q64.95 35.42 65.33 32.41L65.31 32.38L65.26 32.34Q65.70 29.24 67.11 26.50L67.04 26.42L67.17 26.56Q66.44 26.77 65.10 27.19L65.16 27.25L65.07 27.16Q65.40 26.65 65.70 26.08L65.57 25.94L66.19 24.86L66.32 24.98Q64.26 25.51 61.10 26.00L61.04 25.95L61.17 26.07Q59.86 30.78 60.01 35.88L60.13 36.00L60.09 35.96Q60.21 38.10 57.55 38.59L57.52 38.57L57.08 38.58L57.02 38.67L56.00 38.45L56.03 38.48Q55.86 37.52 55.90 37.02L55.99 37.11L56.01 37.13Q56.16 32.56 55.47 28.15L55.38 28.05L54.33 27.92L54.44 28.03Q53.85 27.93 53.31 27.81L53.37 27.87L53.43 27.93Q53.00 26.47 52.73 25.71L52.63 25.61L52.77 25.75Q49.98 25.32 47.73 24.02L47.76 24.05L47.61 23.89Q49.76 27.42 50.48 30.81L50.64 30.96L50.48 30.81Q51.04 33.08 50.89 36.58L50.96 36.65L50.84 36.54Q50.86 36.67 50.79 37.77L50.85 37.83L50.75 37.73Q50.68 40.18 52.05 41.13L52.13 41.21L51.98 41.05Q52.45 43.40 59.46 43.78Z"/><path fill="#333" d="M31.08 41.18L31.14 41.24L28.22 41.17L28.24 41.19Q25.72 40.95 24.92 40.84L24.98 40.90L24.92 40.84Q23.06 40.47 21.88 39.59L21.86 39.57L21.90 39.61Q20.59 38.18 20.36 34.83L20.47 34.94L20.47 34.95Q20.34 34.35 20.26 33.13L20.34 33.21L20.27 33.14Q20.25 32.71 20.17 31.60L20.24 31.66L20.21 31.64Q20.24 30.87 20.28 30.14L20.25 30.11L20.32 30.18Q20.41 28.14 21.43 27.38L21.47 27.42L21.43 27.38Q23.35 26.21 28.18 25.98L28.25 26.05L28.24 26.03Q30.29 25.95 31.09 25.95L30.99 25.86L31.07 25.94Q32.56 25.95 33.93 26.25L33.99 26.31L33.94 26.26Q33.34 27.49 32.81 29.31L32.78 29.29L32.78 29.28Q32.31 29.39 31.82 29.35L31.89 29.43L31.89 29.42Q31.76 29.37 31.23 29.26L31.22 29.25L30.13 28.88L30.15 28.90Q29.18 28.73 28.57 28.77L28.50 28.70L28.43 28.63Q23.89 28.89 23.28 31.70L23.11 31.53L23.13 31.55Q22.96 32.79 23.04 33.74L22.95 33.65L23.00 33.71Q23.25 36.39 24.49 37.48L24.33 37.32L24.45 37.44Q25.64 38.47 28.22 38.51L28.30 38.58L28.18 38.46Q29.81 38.65 30.53 38.35L30.36 38.17L31.55 37.84L31.54 37.83Q32.05 37.57 32.62 37.50L32.51 37.39L32.59 37.47Q32.75 39.19 33.13 40.48L33.19 40.55L33.19 40.54Q32.90 40.86 31.11 41.20ZM34.43 44.22L34.41 44.20L34.36 44.15Q34.87 44.32 35.71 44.39L35.56 44.25L35.53 44.21Q36.19 44.27 36.53 43.70L36.53 43.69L36.61 43.78Q35.39 41.67 34.89 39.58L34.99 39.68L34.99 39.68Q34.56 39.55 34.10 39.55L34.07 39.52L34.12 39.57Q33.65 39.52 33.27 39.71L33.28 39.72L33.38 39.82Q33.04 38.57 32.89 37.16L32.87 37.14L32.71 36.98Q32.09 36.89 30.87 37.46L30.92 37.52L31.03 37.62Q29.72 38.10 29.23 38.10L29.19 38.06L29.35 38.23Q28.72 38.10 28.11 38.06L28.10 38.04L28.18 38.13Q27.25 38.06 25.27 37.49L25.25 37.48L25.28 37.51Q24.99 36.84 25.03 35.70L25.06 35.73L24.93 35.60Q25.25 31.50 30.20 30.97L30.04 30.81L30.09 30.85Q30.82 30.90 32.19 31.24L32.21 31.27L32.13 31.18Q33.47 31.50 34.19 31.46L34.37 31.64L34.38 31.64Q34.71 29.31 35.39 27.48L35.38 27.47L35.40 27.49Q35.09 27.44 34.71 27.36L34.69 27.35L33.87 27.22L33.79 27.13Q33.97 26.63 34.35 25.75L34.44 25.84L34.50 25.90Q33.01 25.59 31.45 25.59L31.35 25.50L31.31 25.45Q29.00 25.54 24.62 25.92L24.50 25.80L24.65 25.95Q22.61 26.00 21.04 26.99L21.05 26.99L21.09 27.03Q19.87 27.99 19.87 29.89L19.77 29.79L19.94 29.96Q19.89 30.33 20.00 31.54L20.00 31.54L19.92 31.47Q20.01 32.50 19.97 33.11L19.93 33.07L20.09 33.23Q20.04 35.04 20.76 38.77L20.76 38.77L20.71 38.72Q21.16 39.63 21.66 40.13L21.69 40.16L21.97 40.44L21.85 40.28L21.88 40.31Q22.89 42.43 26.82 43.04L26.80 43.02L26.79 43.01Q30.02 43.58 32.68 43.84L32.78 43.94L32.66 43.82Q33.53 43.96 34.44 44.23Z"/><path d="M14 6 C64 19,57 13,135 23" stroke="#555" fill="none"/></svg>